<?xml version="1.0" encoding="UTF-8" standalone="no"?>
<!DOCTYPE svg PUBLIC "-//W3C//DTD SVG 1.1//EN" "http://www.w3.org/Graphics/SVG/1.1/DTD/svg11.dtd">
<svg width="100%" height="100%" viewBox="0 0 359 204" version="1.1" xmlns="http://www.w3.org/2000/svg" xmlns:xlink="http://www.w3.org/1999/xlink" xml:space="preserve" xmlns:serif="http://www.serif.com/" style="fill-rule:evenodd;clip-rule:evenodd;stroke-linejoin:round;stroke-miterlimit:2;">
    <g transform="matrix(4.09939,0,0,4.09939,73.7956,86.9915)">
        <path d="M0,-1.416C0.63,-1.939 1.199,-2.192 1.684,-2.171C2.729,-2.126 3.097,-1.395 3.145,-0.953C2.906,-0.869 -1.795,0.71 -1.994,0.776C-2.066,0.7 -2.147,0.612 -2.25,0.503C-2.002,0.294 0,-1.416 0,-1.416" style="fill:rgb(0,63,95);fill-rule:nonzero;"/>
    </g>
    <g transform="matrix(4.09939,0,0,4.09939,2.8929,125.953)">
        <path d="M0,-0.925C0,4.362 2.328,7.046 6.92,7.046C9.95,7.046 11.79,5.706 11.865,5.648L12.012,5.541L12.012,-1.73L5.679,-1.73L5.679,0.301L9.434,0.301L9.434,4.419C9.058,4.637 8.128,5.018 6.779,5.018C4.065,5.018 2.744,3.073 2.744,-0.925C2.744,-3.215 3.396,-5.939 6.496,-5.939C8.559,-5.939 9.293,-4.739 9.293,-3.613L9.293,-3.254L12.107,-3.254L12.107,-3.613C12.107,-6.22 9.843,-7.971 6.47,-7.971C2.358,-7.971 0,-5.401 0,-0.925" style="fill:rgb(0,63,95);fill-rule:nonzero;"/>
    </g>
    <g transform="matrix(4.09939,0,0,4.09939,93.1476,153.922)">
        <path d="M0.362,-14.575L-8.303,-14.575L-8.303,0L0.574,0L0.574,-2.027L-5.724,-2.027L-5.724,-6.602L0.076,-6.602L0.076,-8.629L-5.724,-8.629L-5.724,-12.547L0.362,-12.547L0.362,-14.575Z" style="fill:rgb(0,63,95);fill-rule:nonzero;"/>
    </g>
    <g transform="matrix(4.09939,0,0,4.09939,246.527,153.922)">
        <path d="M0.362,-14.575L-12.624,-14.575L-12.624,-3.778C-13.655,-5.568 -18.852,-14.575 -18.852,-14.575L-21.797,-14.575L-21.797,0L-19.316,0L-19.316,-10.757C-18.283,-8.972 -13.088,0 -13.088,0L-10.141,0L-10.141,-12.547L-6.137,-12.547L-6.137,0L-3.56,0L-3.56,-12.547L0.362,-12.547L0.362,-14.575Z" style="fill:rgb(0,63,95);fill-rule:nonzero;"/>
    </g>
    <g transform="matrix(4.09939,0,0,4.09939,118.673,120.018)">
        <path d="M0,1.967C0.248,1.257 1.472,-2.234 1.911,-3.489C2.35,-2.234 3.576,1.257 3.824,1.967L0,1.967ZM3.277,-6.304L0.52,-6.304L-4.981,8.271L-2.354,8.271C-2.354,8.271 -0.917,4.416 -0.76,3.999L4.586,3.999C4.745,4.412 6.228,8.271 6.228,8.271L8.854,8.271L3.277,-6.304Z" style="fill:rgb(0,63,95);fill-rule:nonzero;"/>
    </g>
    <g transform="matrix(4.09939,0,0,4.09939,347.078,88.4296)">
        <path d="M0,-12.47C-9.59,-24.342 -48.428,-7.57 -58.871,-3.156C-59.625,-2.839 -60.586,-2.908 -61.131,-3.991C-60.721,-2.948 -59.849,-2.52 -58.781,-2.948C-44.896,-8.495 -11.421,-20.527 -3.044,-9.539C0.747,-4.572 -0.315,1.565 -4.464,10.159C-4.661,10.531 -4.789,10.774 -4.818,10.823C-4.831,10.847 -4.846,10.865 -4.859,10.888C-4.872,10.91 -4.887,10.936 -4.898,10.956C-5.217,11.473 -5.624,11.758 -6.032,11.872C-5.553,11.847 -5.043,11.612 -4.653,11.006C-4.553,10.847 -4.419,10.629 -4.26,10.361L-4.262,10.358C1.884,0.133 4.001,-7.516 0,-12.47" style="fill:rgb(0,63,95);fill-rule:nonzero;"/>
    </g>
    <g transform="matrix(4.09939,0,0,4.09939,317.165,-17.1765)">
        <path d="M0,37.226C-0.141,37.11 -1.859,35.561 -3.584,33.938C-12.702,25.347 -40.187,-1.235 -52.2,5.747C-55.586,7.714 -56.169,13.439 -54.071,21.079C-54.066,21.094 -54.062,21.106 -54.058,21.119L-54.058,21.122C-54.029,21.223 -54.001,21.326 -53.971,21.425C-53.743,22.22 -53.165,22.723 -52.472,22.768C-53.006,22.63 -53.434,22.237 -53.659,21.626C-53.693,21.544 -53.724,21.456 -53.748,21.372C-53.784,21.241 -53.817,21.104 -53.855,20.963L-53.857,20.964C-53.879,20.875 -53.898,20.788 -53.913,20.699C-55.031,14.222 -53.688,9.961 -51.067,8.242C-41.441,1.918 -18.284,21.853 -6.683,31.89C-4.025,34.19 -1.035,36.747 -0.093,37.454C1.241,38.461 2.321,37.306 2.595,36.837C2.182,37.452 1.039,38.086 0,37.226" style="fill:rgb(237,25,86);fill-rule:nonzero;"/>
    </g>
    <g transform="matrix(4.09939,0,0,4.09939,5.55135,175.326)">
        <path d="M0,5.062L0,0L0.712,0L2.331,2.563C2.708,3.155 3.003,3.687 3.238,4.203L3.257,4.198C3.198,3.521 3.182,2.907 3.182,2.12L3.182,0L3.798,0L3.798,5.062L3.137,5.062L1.53,2.492C1.179,1.931 0.839,1.35 0.582,0.805L0.562,0.813C0.601,1.451 0.613,2.056 0.613,2.899L0.613,5.062L0,5.062Z" style="fill:rgb(0,63,95);fill-rule:nonzero;"/>
    </g>
    <g transform="matrix(4.09939,0,0,4.09939,35.1477,190.044)">
        <path d="M0,-0.7C0.007,-1.12 -0.172,-1.77 -0.914,-1.77C-1.585,-1.77 -1.877,-1.156 -1.924,-0.7L0,-0.7ZM-1.937,-0.228C-1.921,0.669 -1.351,1.034 -0.689,1.034C-0.217,1.034 0.067,0.955 0.316,0.848L0.43,1.322C0.196,1.425 -0.2,1.544 -0.776,1.544C-1.896,1.544 -2.567,0.81 -2.567,-0.288C-2.567,-1.381 -1.921,-2.244 -0.862,-2.244C0.325,-2.244 0.639,-1.203 0.639,-0.536C0.639,-0.399 0.622,-0.291 0.617,-0.228L-1.937,-0.228Z" style="fill:rgb(0,63,95);fill-rule:nonzero;"/>
    </g>
    <g transform="matrix(4.09939,0,0,4.09939,44.3792,196.374)">
        <path d="M0,-4.752L0,-3.705L0.947,-3.705L0.947,-3.203L0,-3.203L0,-1.245C0,-0.795 0.126,-0.54 0.494,-0.54C0.67,-0.54 0.797,-0.56 0.878,-0.584L0.909,-0.087C0.778,-0.039 0.58,0 0.325,0C0.019,0 -0.232,-0.096 -0.391,-0.275C-0.574,-0.471 -0.646,-0.795 -0.646,-1.221L-0.646,-3.203L-1.207,-3.203L-1.207,-3.705L-0.646,-3.705L-0.646,-4.579L0,-4.752Z" style="fill:rgb(0,63,95);fill-rule:nonzero;"/>
    </g>
    <g transform="matrix(4.09939,0,0,4.09939,52.6661,196.078)">
        <path d="M0,-3.633L0.478,-1.786C0.584,-1.385 0.682,-1.007 0.749,-0.633L0.772,-0.633C0.854,-1.001 0.975,-1.391 1.097,-1.778L1.686,-3.633L2.242,-3.633L2.808,-1.818C2.943,-1.385 3.045,-1.001 3.13,-0.633L3.149,-0.633C3.209,-1.001 3.31,-1.385 3.432,-1.813L3.949,-3.633L4.6,-3.633L3.432,0L2.83,0L2.272,-1.736C2.146,-2.14 2.043,-2.499 1.951,-2.93L1.937,-2.93C1.845,-2.496 1.732,-2.118 1.606,-1.728L1.019,0L0.42,0L-0.675,-3.633L0,-3.633Z" style="fill:rgb(0,63,95);fill-rule:nonzero;"/>
    </g>
    <g transform="matrix(4.09939,0,0,4.09939,75.5973,188.615)">
        <path d="M0,0.008C0,0.808 0.455,1.408 1.103,1.408C1.734,1.408 2.205,0.814 2.205,-0.004C2.205,-0.621 1.895,-1.399 1.115,-1.399C0.338,-1.399 0,-0.679 0,0.008M2.879,-0.027C2.879,1.315 1.95,1.903 1.072,1.903C0.088,1.903 -0.668,1.182 -0.668,0.034C-0.668,-1.185 0.124,-1.895 1.129,-1.895C2.175,-1.895 2.879,-1.137 2.879,-0.027" style="fill:rgb(0,63,95);fill-rule:nonzero;"/>
    </g>
    <g transform="matrix(4.09939,0,0,4.09939,90.8257,191.089)">
        <path d="M0,-1.282C0,-1.713 -0.01,-2.081 -0.03,-2.416L0.55,-2.416L0.566,-1.702L0.598,-1.702C0.765,-2.192 1.162,-2.499 1.605,-2.499C1.679,-2.499 1.731,-2.495 1.792,-2.477L1.792,-1.853C1.726,-1.867 1.658,-1.878 1.568,-1.878C1.102,-1.878 0.773,-1.528 0.683,-1.027C0.665,-0.938 0.651,-0.836 0.651,-0.72L0.651,1.217L0,1.217L0,-1.282Z" style="fill:rgb(0,63,95);fill-rule:nonzero;"/>
    </g>
    <g transform="matrix(4.09939,0,0,4.09939,103.692,182.288)">
        <path d="M0,1.397L0.013,1.397C0.104,1.267 0.23,1.112 0.335,0.984L1.399,-0.269L2.197,-0.269L0.791,1.224L2.392,3.364L1.59,3.364L0.335,1.623L0,1.997L0,3.364L-0.657,3.364L-0.657,-1.967L0,-1.967L0,1.397Z" style="fill:rgb(0,63,95);fill-rule:nonzero;"/>
    </g>
    <g transform="matrix(4.09939,0,0,4.09939,146.664,178.566)">
        <path d="M0,3.472C0.289,3.654 0.719,3.804 1.168,3.804C1.839,3.804 2.225,3.454 2.225,2.945C2.225,2.469 1.954,2.195 1.275,1.935C0.447,1.644 -0.064,1.212 -0.064,0.5C-0.064,-0.285 0.589,-0.872 1.574,-0.872C2.092,-0.872 2.465,-0.754 2.689,-0.624L2.514,-0.092C2.347,-0.18 2.007,-0.331 1.547,-0.331C0.857,-0.331 0.596,0.079 0.596,0.425C0.596,0.902 0.905,1.132 1.601,1.404C2.458,1.737 2.892,2.145 2.892,2.887C2.892,3.672 2.317,4.344 1.125,4.344C0.635,4.344 0.104,4.202 -0.169,4.023L0,3.472Z" style="fill:rgb(0,63,95);fill-rule:nonzero;"/>
    </g>
    <g transform="matrix(4.09939,0,0,4.09939,171.732,190.044)">
        <path d="M0,-0.7C0.006,-1.12 -0.171,-1.77 -0.917,-1.77C-1.584,-1.77 -1.876,-1.156 -1.93,-0.7L0,-0.7ZM-1.934,-0.228C-1.924,0.669 -1.352,1.034 -0.693,1.034C-0.215,1.034 0.07,0.955 0.317,0.848L0.427,1.322C0.193,1.425 -0.205,1.544 -0.781,1.544C-1.898,1.544 -2.567,0.81 -2.567,-0.288C-2.567,-1.381 -1.924,-2.244 -0.862,-2.244C0.322,-2.244 0.638,-1.203 0.638,-0.536C0.638,-0.399 0.623,-0.291 0.612,-0.228L-1.934,-0.228Z" style="fill:rgb(0,63,95);fill-rule:nonzero;"/>
    </g>
    <g transform="matrix(4.09939,0,0,4.09939,177.71,191.089)">
        <path d="M0,-1.282C0,-1.713 -0.014,-2.081 -0.03,-2.416L0.545,-2.416L0.571,-1.702L0.599,-1.702C0.764,-2.192 1.162,-2.499 1.605,-2.499C1.68,-2.499 1.731,-2.495 1.792,-2.477L1.792,-1.853C1.728,-1.867 1.658,-1.878 1.567,-1.878C1.1,-1.878 0.771,-1.528 0.681,-1.027C0.669,-0.938 0.649,-0.836 0.649,-0.72L0.649,1.217L0,1.217L0,-1.282Z" style="fill:rgb(0,63,95);fill-rule:nonzero;"/>
    </g>
    <g transform="matrix(4.09939,0,0,4.09939,189.576,196.078)">
        <path d="M0,-3.633L0.715,-1.594C0.837,-1.263 0.93,-0.96 1.006,-0.662L1.031,-0.662C1.11,-0.96 1.217,-1.263 1.337,-1.594L2.044,-3.633L2.734,-3.633L1.308,0L0.677,0L-0.703,-3.633L0,-3.633Z" style="fill:rgb(0,63,95);fill-rule:nonzero;"/>
    </g>
    <g transform="matrix(4.09939,0,0,4.09939,-1545.78,86.3602)">
        <path d="M426.676,23.132L427.336,23.132L427.336,26.765L426.676,26.765L426.676,23.132ZM427.411,22.108C427.421,22.335 427.256,22.515 426.994,22.515C426.758,22.515 426.591,22.335 426.591,22.108C426.591,21.876 426.765,21.697 427.007,21.697C427.256,21.697 427.411,21.876 427.411,22.108" style="fill:rgb(0,63,95);fill-rule:nonzero;"/>
    </g>
    <g transform="matrix(4.09939,0,0,4.09939,221.154,181.71)">
        <path d="M0,3.37C-0.173,3.458 -0.557,3.577 -1.043,3.577C-2.138,3.577 -2.854,2.837 -2.854,1.727C-2.854,0.607 -2.088,-0.207 -0.9,-0.207C-0.511,-0.207 -0.164,-0.107 0.016,-0.014L-0.136,0.494C-0.292,0.403 -0.539,0.318 -0.9,0.318C-1.734,0.318 -2.183,0.934 -2.183,1.692C-2.183,2.537 -1.645,3.055 -0.923,3.055C-0.548,3.055 -0.299,2.955 -0.112,2.872L0,3.37Z" style="fill:rgb(0,63,95);fill-rule:nonzero;"/>
    </g>
    <g transform="matrix(4.09939,0,0,4.09939,233.584,190.044)">
        <path d="M0,-0.7C0.009,-1.12 -0.175,-1.77 -0.916,-1.77C-1.583,-1.77 -1.876,-1.156 -1.928,-0.7L0,-0.7ZM-1.937,-0.228C-1.92,0.669 -1.349,1.034 -0.688,1.034C-0.218,1.034 0.068,0.955 0.319,0.848L0.432,1.322C0.199,1.425 -0.204,1.544 -0.778,1.544C-1.895,1.544 -2.566,0.81 -2.566,-0.288C-2.566,-1.381 -1.92,-2.244 -0.866,-2.244C0.323,-2.244 0.639,-1.203 0.639,-0.536C0.639,-0.399 0.621,-0.291 0.614,-0.228L-1.937,-0.228Z" style="fill:rgb(0,63,95);fill-rule:nonzero;"/>
    </g>
    <g transform="matrix(4.09939,0,0,4.09939,239.192,183.924)">
        <path d="M0,2.286C0.196,2.415 0.541,2.553 0.87,2.553C1.353,2.553 1.577,2.312 1.577,2.012C1.577,1.693 1.388,1.52 0.9,1.34C0.25,1.11 -0.06,0.748 -0.06,0.315C-0.06,-0.272 0.413,-0.751 1.194,-0.751C1.561,-0.751 1.883,-0.647 2.085,-0.528L1.92,-0.046C1.778,-0.137 1.512,-0.255 1.178,-0.255C0.787,-0.255 0.57,-0.032 0.57,0.237C0.57,0.539 0.787,0.674 1.258,0.855C1.891,1.094 2.213,1.41 2.213,1.952C2.213,2.589 1.719,3.037 0.856,3.037C0.456,3.037 0.089,2.941 -0.164,2.79L0,2.286Z" style="fill:rgb(0,63,95);fill-rule:nonzero;"/>
    </g>
    <g transform="matrix(4.09939,0,0,4.09939,115.35,183.924)">
        <path d="M0,2.286C0.196,2.415 0.548,2.553 0.873,2.553C1.352,2.553 1.581,2.312 1.581,2.012C1.581,1.693 1.393,1.52 0.906,1.34C0.253,1.11 -0.06,0.748 -0.06,0.315C-0.06,-0.272 0.415,-0.751 1.193,-0.751C1.562,-0.751 1.886,-0.647 2.088,-0.528L1.925,-0.046C1.782,-0.137 1.519,-0.255 1.18,-0.255C0.79,-0.255 0.573,-0.032 0.573,0.237C0.573,0.539 0.79,0.674 1.266,0.855C1.893,1.094 2.216,1.41 2.216,1.952C2.216,2.589 1.723,3.037 0.858,3.037C0.461,3.037 0.094,2.941 -0.165,2.79L0,2.286Z" style="fill:rgb(0,63,95);fill-rule:nonzero;"/>
    </g>
    <g transform="matrix(4.09939,0,0,4.09939,273.389,185.671)">
        <path d="M0,-0.019C0.146,0.015 0.325,0.029 0.542,0.029C1.333,0.029 1.812,-0.352 1.812,-1.053C1.812,-1.718 1.336,-2.043 0.616,-2.043C0.332,-2.043 0.113,-2.018 0,-1.99L0,-0.019ZM-0.655,-2.463C-0.336,-2.512 0.078,-2.558 0.603,-2.558C1.248,-2.558 1.722,-2.409 2.02,-2.141C2.297,-1.901 2.46,-1.538 2.46,-1.082C2.46,-0.623 2.329,-0.261 2.073,0.003C1.729,0.367 1.167,0.555 0.524,0.555C0.332,0.555 0.153,0.549 0,0.513L0,2.539L-0.655,2.539L-0.655,-2.463Z" style="fill:rgb(0,63,95);fill-rule:nonzero;"/>
    </g>
    <g transform="matrix(4.09939,0,0,4.09939,295.671,190.044)">
        <path d="M0,-0.7C0.007,-1.12 -0.172,-1.77 -0.915,-1.77C-1.585,-1.77 -1.879,-1.156 -1.931,-0.7L0,-0.7ZM-1.935,-0.228C-1.92,0.669 -1.353,1.034 -0.691,1.034C-0.214,1.034 0.069,0.955 0.319,0.848L0.429,1.322C0.197,1.425 -0.2,1.544 -0.781,1.544C-1.896,1.544 -2.565,0.81 -2.565,-0.288C-2.565,-1.381 -1.92,-2.244 -0.864,-2.244C0.323,-2.244 0.638,-1.203 0.638,-0.536C0.638,-0.399 0.623,-0.291 0.617,-0.228L-1.935,-0.228Z" style="fill:rgb(0,63,95);fill-rule:nonzero;"/>
    </g>
    <g transform="matrix(4.09939,0,0,4.09939,303.314,188.615)">
        <path d="M0,0.008C0,0.808 0.456,1.408 1.101,1.408C1.735,1.408 2.205,0.814 2.205,-0.004C2.205,-0.621 1.897,-1.399 1.116,-1.399C0.335,-1.399 0,-0.679 0,0.008M2.877,-0.027C2.877,1.315 1.95,1.903 1.071,1.903C0.087,1.903 -0.667,1.182 -0.667,0.034C-0.667,-1.185 0.124,-1.895 1.128,-1.895C2.175,-1.895 2.877,-1.137 2.877,-0.027" style="fill:rgb(0,63,95);fill-rule:nonzero;"/>
    </g>
    <g transform="matrix(4.09939,0,0,4.09939,321.216,193.005)">
        <path d="M0,-0.732C0,-0.635 0.017,-0.544 0.029,-0.461C0.148,-0.001 0.546,0.312 1.022,0.312C1.718,0.312 2.125,-0.257 2.125,-1.091C2.125,-1.821 1.74,-2.442 1.046,-2.442C0.594,-2.442 0.172,-2.119 0.044,-1.625C0.021,-1.542 0,-1.444 0,-1.351L0,-0.732ZM-0.655,-1.7C-0.655,-2.164 -0.669,-2.539 -0.685,-2.883L-0.091,-2.883L-0.062,-2.261L-0.042,-2.261C0.226,-2.705 0.653,-2.966 1.248,-2.966C2.125,-2.966 2.785,-2.221 2.785,-1.122C2.785,0.187 1.991,0.831 1.133,0.831C0.653,0.831 0.231,0.619 0.017,0.262L0,0.262L0,2.234L-0.655,2.234L-0.655,-1.7Z" style="fill:rgb(0,63,95);fill-rule:nonzero;"/>
    </g>
    <g transform="matrix(4.09939,0,0,4.09939,-1545.78,85.2739)">
        <rect x="459.048" y="21.698" width="0.662" height="5.331" style="fill:rgb(0,63,95);"/>
    </g>
    <g transform="matrix(4.09939,0,0,4.09939,352.771,190.044)">
        <path d="M0,-0.7C0.001,-1.12 -0.175,-1.77 -0.92,-1.77C-1.586,-1.77 -1.881,-1.156 -1.931,-0.7L0,-0.7ZM-1.937,-0.228C-1.922,0.669 -1.354,1.034 -0.691,1.034C-0.22,1.034 0.066,0.955 0.313,0.848L0.427,1.322C0.193,1.425 -0.206,1.544 -0.784,1.544C-1.898,1.544 -2.567,0.81 -2.567,-0.288C-2.567,-1.381 -1.922,-2.244 -0.866,-2.244C0.322,-2.244 0.638,-1.203 0.638,-0.536C0.638,-0.399 0.618,-0.291 0.612,-0.228L-1.937,-0.228Z" style="fill:rgb(0,63,95);fill-rule:nonzero;"/>
    </g>
    <g transform="matrix(0,-4.09939,-4.09939,0,135.599,183.94)">
        <path d="M-0.724,-0.722C-1.122,-0.722 -1.442,-0.399 -1.442,0.004C-1.442,0.398 -1.122,0.724 -0.724,0.724C-0.325,0.724 -0.004,0.398 -0.004,0.004C-0.004,-0.399 -0.325,-0.722 -0.724,-0.722" style="fill:rgb(0,63,95);fill-rule:nonzero;"/>
    </g>
    <g transform="matrix(0,-4.09939,-4.09939,0,258.89,183.952)">
        <path d="M-0.721,-0.719C-1.119,-0.719 -1.44,-0.399 -1.44,0.001C-1.44,0.399 -1.119,0.721 -0.721,0.721C-0.322,0.721 -0.001,0.399 -0.001,0.001C-0.001,-0.399 -0.322,-0.719 -0.721,-0.719" style="fill:rgb(0,63,95);fill-rule:nonzero;"/>
    </g>
</svg>
