<?xml version="1.0" encoding="UTF-8" standalone="no"?>
<!-- Generator: Adobe Illustrator 15.0.2, SVG Export Plug-In  -->
<svg
   version="1.1"
   x="0px"
   y="0px"
   width="68.576523"
   height="76.691002"
   viewBox="-3.071 -28.655 68.576523 76.691002"
   overflow="visible"
   enable-background="new -3.071 -28.655 252 122"
   xml:space="preserve"
   id="svg11"
   xmlns="http://www.w3.org/2000/svg"
   xmlns:svg="http://www.w3.org/2000/svg">
<defs
   id="defs1" />
<g
   id="g11"
   transform="translate(-3.0711243,-28.655)"><polygon
     fill="#78b6e4"
     points="33.847,55.915 49.767,49.075 49.767,30.13 33.729,37.444 33.847,38.36 "
     id="polygon1" /><path
     fill="#ffffff"
     d="M 34.289,76.691 C 25.047,76.691 17.806,59.848 17.806,38.345 17.806,16.845 25.047,0 34.289,0 c 9.24,0 16.482,16.845 16.482,38.346 0,21.503 -7.242,38.345 -16.482,38.345 z m 0,-74.725 c -7.868,0 -14.517,16.657 -14.517,36.38 0,19.723 6.648,36.38 14.517,36.38 7.866,0 14.515,-16.657 14.515,-36.38 0,-19.723 -6.649,-36.38 -14.515,-36.38 z"
     id="path1" /><path
     fill="#ffffff"
     d="m 12.516,62.298 c -5.683,0 -9.647,-1.669 -11.467,-4.834 -4.607,-8.014 6.382,-22.688 25.024,-33.407 10.521,-6.051 21.732,-9.666 29.989,-9.666 5.681,0 9.646,1.669 11.467,4.835 2.272,3.956 0.822,9.654 -4.098,16.045 -4.733,6.159 -12.165,12.322 -20.925,17.36 -10.525,6.053 -21.734,9.667 -29.99,9.667 z M 56.062,16.356 c -7.927,0 -18.771,3.516 -29.015,9.406 -17.089,9.831 -28.214,23.899 -24.294,30.725 1.831,3.18 6.32,3.846 9.763,3.846 7.925,0 18.771,-3.516 29.011,-9.409 8.541,-4.91 15.768,-10.896 20.347,-16.85 4.338,-5.639 5.774,-10.693 3.95,-13.873 -1.829,-3.176 -6.32,-3.845 -9.762,-3.845 z"
     id="path2" /><path
     fill="#ffffff"
     d="m 56.063,62.298 v 0 c -8.258,0 -19.471,-3.614 -29.99,-9.667 C 17.31,47.593 9.88,41.43 5.145,35.271 0.229,28.88 -1.227,23.182 1.049,19.226 2.868,16.06 6.833,14.391 12.516,14.391 c 8.257,0 19.466,3.615 29.991,9.666 18.637,10.72 29.629,25.394 25.022,33.407 -1.82,3.165 -5.786,4.834 -11.466,4.834 z M 12.516,16.356 c -3.442,0 -7.932,0.669 -9.763,3.845 -1.824,3.18 -0.386,8.234 3.951,13.873 4.582,5.953 11.804,11.939 20.344,16.85 10.24,5.894 21.085,9.409 29.015,9.409 h 10e-4 c 3.443,0 7.932,-0.666 9.76,-3.846 C 69.748,49.661 58.621,35.592 41.527,25.762 31.287,19.872 20.44,16.356 12.516,16.356 Z"
     id="path3" /><polygon
     fill="#27aae1"
     points="33.599,37.566 48.683,29.104 34.816,20.646 19.294,29.13 "
     id="polygon3" /><path
     fill="#ffffff"
     d="m 33.599,38.549 c -0.167,0 -0.333,-0.044 -0.484,-0.132 L 18.807,29.983 c -0.303,-0.18 -0.486,-0.512 -0.481,-0.867 0.006,-0.357 0.201,-0.681 0.512,-0.852 l 15.521,-8.485 c 0.297,-0.163 0.664,-0.156 0.955,0.026 l 13.865,8.457 c 0.295,0.181 0.478,0.507 0.471,0.86 -0.007,0.351 -0.195,0.674 -0.503,0.841 l -15.078,8.464 c -0.149,0.082 -0.307,0.122 -0.47,0.122 z M 21.275,29.163 33.611,36.437 46.745,29.068 34.789,21.78 Z"
     id="path4" /><rect
     x="32.745998"
     y="37.566002"
     fill="#ffffff"
     width="1.965"
     height="16.848"
     id="rect4" /></g>
</svg>
