<?xml version="1.0" encoding="UTF-8" standalone="no"?><!DOCTYPE svg PUBLIC "-//W3C//DTD SVG 1.1//EN" "http://www.w3.org/Graphics/SVG/1.1/DTD/svg11.dtd"><svg width="100%" height="100%" viewBox="0 0 141 37" version="1.1" xmlns="http://www.w3.org/2000/svg" xmlns:xlink="http://www.w3.org/1999/xlink" xml:space="preserve" xmlns:serif="http://www.serif.com/" style="fill-rule:evenodd;clip-rule:evenodd;stroke-linejoin:round;stroke-miterlimit:1.41421;"><rect id="Artboard1" x="0" y="0" width="140.061" height="36.686" style="fill:none;"/><path d="M0.44,16.16c0,-0.92 0.746,-1.658 1.667,-1.658c0.439,0 0.829,0.174 1.128,0.448c-0.008,-0.149 -0.017,-0.29 -0.017,-0.439c0,-3.076 2.487,-5.564 5.564,-5.564c0.796,0 1.55,0.166 2.239,0.473c-0.008,-0.158 -0.017,-0.315 -0.017,-0.464c0,-4.61 3.731,-8.341 8.341,-8.341c4.577,0 8.291,3.69 8.341,8.258c-1.509,1.327 -2.711,3.001 -3.482,4.892c-1.492,-0.929 -3.25,-1.484 -5.132,-1.484c-3.88,0 -7.23,2.206 -8.797,5.539l-5.946,0l-2.222,0c-0.921,-0.018 -1.667,-0.739 -1.667,-1.66Zm43.92,-4.983c-2.065,-2.065 -4.909,-3.341 -8.059,-3.341c-5.746,0 -10.505,4.254 -11.285,9.792c-1.418,-1.89 -3.681,-3.118 -6.227,-3.118c-4.303,0 -7.786,3.491 -7.786,7.786c0,1.252 0.298,2.429 0.821,3.482c-2.703,0.547 -4.71,2.645 -4.71,5.141c0,2.919 2.736,5.282 6.119,5.282c1.492,0 2.861,-0.464 3.922,-1.235l12.512,-12.305c1.385,-1.269 3.225,-2.04 5.248,-2.04c4.229,0 7.67,3.375 7.786,7.578c0,0 0,-0.008 -0.008,-0.008c0.066,1.244 -0.58,2.496 -1.774,3.184c-1.667,0.962 -3.756,0.448 -4.668,-1.136c-0.92,-1.592 -0.315,-3.657 1.352,-4.618c0.39,-0.224 0.796,-0.365 1.211,-0.439c-0.357,-0.075 -0.73,-0.108 -1.111,-0.108c-3.068,0 -5.564,2.487 -5.564,5.564c0,3.076 2.487,5.564 5.564,5.564c0.133,0 0.274,-0.008 0.406,-0.017l-0.008,-0.017l0.158,-0.017l10.92,0l0,0.041c3.341,-0.149 6.5,-3.225 6.5,-6.973c0,-3.839 -3.283,-6.973 -7.122,-6.973c-0.008,0 -0.008,0 -0.017,0c-0.622,1.111 -1.376,1.758 -2.23,2.454c0.895,-1.633 1.41,-3.491 1.41,-5.481c-0.019,-3.141 -1.296,-5.977 -3.36,-8.042Z" style="fill:url(#_Linear1);fill-rule:nonzero;"/><g><g><path d="M69.544,23.239l-1.421,-0.509c-3.001,-0.947 -4.502,-2.582 -4.502,-4.905c0,-1.661 0.545,-2.979 1.635,-3.953c1.09,-0.974 2.412,-1.443 3.966,-1.407c1.84,0.036 3.422,0.706 4.744,2.01l-1.742,1.983c-0.965,-0.875 -1.966,-1.286 -3.002,-1.232c-0.75,0.035 -1.376,0.281 -1.876,0.737c-0.5,0.455 -0.75,1.04 -0.75,1.755c0,0.679 0.228,1.219 0.683,1.621c0.456,0.402 1.166,0.764 2.131,1.086l1.447,0.455c1.215,0.376 2.233,1.019 3.055,1.93c0.822,0.911 1.233,2.064 1.233,3.457c0,1.626 -0.576,2.939 -1.729,3.94c-1.152,1 -2.559,1.492 -4.221,1.474c-1.054,0 -2.103,-0.219 -3.149,-0.657c-1.045,-0.438 -1.996,-1.094 -2.854,-1.97l1.769,-2.063c1.286,1.358 2.689,2.01 4.208,1.956c0.893,-0.018 1.643,-0.281 2.251,-0.79c0.607,-0.51 0.911,-1.139 0.911,-1.89c0,-1.393 -0.929,-2.403 -2.787,-3.028Z" style="fill:#464646;fill-rule:nonzero;"/><path d="M87.687,28.143l1.984,1.983c-1.215,1.037 -2.85,1.555 -4.905,1.555c-0.947,0 -1.849,-0.152 -2.707,-0.456c-0.857,-0.304 -1.63,-0.737 -2.318,-1.3c-0.688,-0.562 -1.237,-1.29 -1.648,-2.184c-0.411,-0.893 -0.616,-1.885 -0.616,-2.975c0,-1.911 0.674,-3.542 2.023,-4.891c1.349,-1.349 2.979,-2.023 4.891,-2.023c2.09,0 3.77,0.759 5.038,2.278c0.965,1.143 1.385,2.314 1.26,3.511c-0.107,1.125 -0.688,1.804 -1.742,2.037c-0.232,0.071 -0.491,0.107 -0.777,0.107l-7.477,0c0,0.982 0.384,1.769 1.152,2.358c0.768,0.59 1.697,0.885 2.787,0.885c1.287,0 2.305,-0.295 3.055,-0.885Zm-6.968,-4.958l5.95,0c0.5,0 0.8,-0.161 0.898,-0.482c0.098,-0.322 -0.014,-0.67 -0.335,-1.045c-0.268,-0.34 -0.648,-0.63 -1.139,-0.871c-0.491,-0.242 -1.059,-0.362 -1.702,-0.362c-1.018,0 -1.876,0.286 -2.573,0.857c-0.697,0.572 -1.063,1.206 -1.099,1.903Z" style="fill:#464646;fill-rule:nonzero;"/></g><path d="M94.521,21.416l-0.991,-2.197c1.286,-0.929 3.001,-1.394 5.145,-1.394c1.912,0 3.395,0.545 4.449,1.635c1.054,1.09 1.581,2.466 1.581,4.127l0,7.879l-2.492,0l0,-1.125c-0.357,0.357 -0.947,0.67 -1.769,0.938c-0.822,0.268 -1.661,0.402 -2.519,0.402c-1.501,0 -2.702,-0.393 -3.605,-1.179c-0.902,-0.787 -1.353,-1.93 -1.353,-3.431c0,-1.322 0.469,-2.385 1.407,-3.189c0.938,-0.804 2.247,-1.188 3.926,-1.152c1.161,0.017 2.35,0.268 3.565,0.75c-0.018,-0.447 -0.108,-0.858 -0.268,-1.233c-0.161,-0.375 -0.389,-0.697 -0.684,-0.965c-0.295,-0.268 -0.661,-0.473 -1.099,-0.616c-0.437,-0.143 -0.933,-0.214 -1.487,-0.214c-1.572,0 -2.841,0.321 -3.806,0.964Zm7.344,6.62l0,-2.09c-1.215,-0.447 -2.395,-0.67 -3.538,-0.67c-0.357,0 -0.683,0.035 -0.978,0.107c-0.295,0.071 -0.541,0.165 -0.737,0.281c-0.197,0.116 -0.362,0.255 -0.496,0.416c-0.134,0.16 -0.228,0.33 -0.281,0.509c-0.054,0.178 -0.081,0.366 -0.081,0.563c0,1.179 0.84,1.768 2.519,1.768c1.072,0 2.269,-0.294 3.592,-0.884Z" style="fill:#464646;fill-rule:nonzero;"/><path d="M112.906,12.492l1.447,0l0,1.474l-1.447,0c-0.357,0 -0.688,0.062 -0.991,0.188c-0.304,0.125 -0.554,0.317 -0.751,0.576c-0.196,0.259 -0.295,0.567 -0.295,0.924l0,2.412l3.216,0l0,1.582l-3.216,0l0,11.818l-1.661,0l0,-11.818l-2.198,0l0,-1.582l2.198,0l0,-2.412c0,-0.964 0.344,-1.733 1.032,-2.304c0.687,-0.572 1.576,-0.858 2.666,-0.858Z" style="fill:#464646;fill-rule:nonzero;"/><path d="M118.414,15.695c-0.206,0.205 -0.456,0.308 -0.751,0.308c-0.295,0 -0.545,-0.103 -0.75,-0.308c-0.206,-0.206 -0.308,-0.456 -0.308,-0.751c0,-0.295 0.102,-0.545 0.308,-0.75c0.205,-0.206 0.455,-0.308 0.75,-0.308c0.295,0 0.545,0.102 0.751,0.308c0.205,0.205 0.308,0.455 0.308,0.75c0,0.295 -0.103,0.545 -0.308,0.751Zm-1.568,15.771l0,-13.4l1.635,0l0,13.4l-1.635,0Z" style="fill:#464646;fill-rule:nonzero;"/><rect x="121.938" y="12.706" width="1.635" height="18.76" style="fill:#464646;fill-rule:nonzero;"/><path d="M137.268,28.84l1.179,1.179c-1.179,1.108 -2.823,1.662 -4.931,1.662c-0.947,0 -1.85,-0.165 -2.707,-0.496c-0.858,-0.331 -1.617,-0.791 -2.278,-1.38c-0.661,-0.59 -1.193,-1.322 -1.595,-2.198c-0.402,-0.875 -0.603,-1.822 -0.603,-2.841c0,-1.911 0.675,-3.542 2.024,-4.891c1.348,-1.349 2.979,-2.023 4.891,-2.023c2.09,0 3.76,0.733 5.011,2.198c0.947,1.107 1.349,2.215 1.206,3.323c-0.125,1.036 -0.715,1.652 -1.769,1.849c-0.196,0.036 -0.411,0.054 -0.643,0.054l-8.817,0c0,1.375 0.509,2.519 1.528,3.43c1.018,0.911 2.242,1.367 3.671,1.367c1.662,0 2.939,-0.411 3.833,-1.233Zm-9.005,-5.119l8.147,0c0.625,0 1.018,-0.232 1.179,-0.697c0.161,-0.464 0.063,-0.964 -0.295,-1.5c-0.321,-0.59 -0.83,-1.09 -1.527,-1.501c-0.697,-0.411 -1.537,-0.617 -2.519,-0.617c-0.894,0 -1.716,0.201 -2.466,0.603c-0.75,0.402 -1.345,0.929 -1.782,1.582c-0.438,0.652 -0.684,1.362 -0.737,2.13Z" style="fill:#464646;fill-rule:nonzero;"/></g><defs><linearGradient id="_Linear1" x1="0" y1="0" x2="1" y2="0" gradientUnits="userSpaceOnUse" gradientTransform="matrix(2.17916e-15,35.5884,-35.5884,2.17916e-15,28.0556,0.61999)"><stop offset="0" style="stop-color:#fad956;stop-opacity:1"/><stop offset="1" style="stop-color:#ffa10f;stop-opacity:1"/></linearGradient></defs></svg>